<?xml version="1.0" encoding="UTF-8" standalone="no"?>
<!-- Created with Inkscape (http://www.inkscape.org/) -->
<svg
   xmlns:dc="http://purl.org/dc/elements/1.1/"
   xmlns:cc="http://web.resource.org/cc/"
   xmlns:rdf="http://www.w3.org/1999/02/22-rdf-syntax-ns#"
   xmlns:svg="http://www.w3.org/2000/svg"
   xmlns="http://www.w3.org/2000/svg"
   xmlns:sodipodi="http://sodipodi.sourceforge.net/DTD/sodipodi-0.dtd"
   xmlns:inkscape="http://www.inkscape.org/namespaces/inkscape"
   width="900"
   height="500"
   id="svg2"
   sodipodi:version="0.32"
   inkscape:version="0.45.1"
   version="1.0"
   sodipodi:docbase="/home/paul/SVN/dCacheBook/images"
   sodipodi:docname="dCache-book-logo.svg"
   inkscape:output_extension="org.inkscape.output.svg.inkscape">
  <sodipodi:namedview
     id="base"
     pagecolor="#ffffff"
     bordercolor="#666666"
     borderopacity="1.0"
     gridtolerance="10000"
     guidetolerance="10"
     objecttolerance="10"
     inkscape:pageopacity="0.0"
     inkscape:pageshadow="2"
     inkscape:zoom="0.5505143"
     inkscape:cx="446.67453"
     inkscape:cy="238.46879"
     inkscape:document-units="px"
     inkscape:current-layer="layer1"
     inkscape:window-width="1016"
     inkscape:window-height="744"
     inkscape:window-x="256"
     inkscape:window-y="218"
     showguides="true"
     inkscape:guide-bbox="true"
     width="900px"
     height="500px" />
  <defs
     id="defs4">
    <filter
       inkscape:collect="always"
       id="filter6176">
      <feGaussianBlur
         inkscape:collect="always"
         stdDeviation="4.2591405"
         id="feGaussianBlur6178" />
    </filter>
  </defs>
  <metadata
     id="metadata7">
    <rdf:RDF>
      <cc:Work
         rdf:about="">
        <dc:format>image/svg+xml</dc:format>
        <dc:type
           rdf:resource="http://purl.org/dc/dcmitype/StillImage" />
      </cc:Work>
    </rdf:RDF>
  </metadata>
  <g
     transform="translate(-11.700263,-23.059507)"
     inkscape:label="Layer 1"
     id="layer1"
     inkscape:groupmode="layer">
    <g
       id="g2161"
       transform="matrix(0.8907156,0,0,0.8907156,285.69003,53.381576)">
      <path
         transform="matrix(1,0,0,0.5933622,19.981315,194.02487)"
         style="fill:#808080;fill-opacity:1;stroke:none;stroke-width:4.90593386;stroke-miterlimit:4;stroke-dasharray:none;stroke-opacity:1;filter:url(#filter6176)"
         id="path4130"
         sodipodi:nodetypes="csccsscscccczsscssssssssccccssccscszssscsscsscczczs"
         d="M 153.3622,466.13472 C 165.4859,458.93873 191.57958,453.90205 202.18128,453.66102 C 215.99592,453.34694 225.27128,454.66674 244.50679,453.3262 C 263.27601,442.32161 295.91552,427.71845 316.61693,418.84052 C 355.3476,399.68599 388.67947,381.9815 411.88183,369.30889 C 418.24332,365.83437 421.92537,366.49479 417.08727,371.94359 C 412.24909,377.39238 398.89081,387.6296 387.31952,395.23006 C 374.95482,404.05079 329.96097,434.61206 310.71043,434.60848 C 306.29992,434.60766 315.05353,430.63272 313.87292,429.34739 C 307.76752,430.37051 278.97582,440.9911 255.2362,453.51883 C 259.57436,454.08293 267.35441,452.99653 272.58736,453.40274 C 297.14731,444.63644 314.40634,437.90865 336.04353,427.85901 C 359.53797,416.32991 373.40598,408.09863 391.36484,395.44221 C 409.32371,382.78575 427.00959,366.54136 427.09401,358.20259 C 427.14831,352.83801 437.60875,342.73811 453.73639,331.82177 C 474.53864,317.74132 530.08714,295.53619 537.13847,288.52618 C 528.72124,287.38115 506.4768,288.71894 505.72631,288.83013 C 477.00849,293.08476 471.21364,299.36795 463.65034,300.45614 C 458.88132,301.1423 474.47269,293.05072 486.33616,288.84782 C 500.25391,283.91714 518.4319,279.4691 531.49028,276.38735 C 539.56719,274.4812 558.63667,270.15531 567.14016,268.20117 C 579.96555,265.25381 585.97792,262.31511 594.1689,259.20383 C 599.30183,257.2541 638.46744,247.79996 647.77173,246.6985 C 653.86054,245.97771 687.66795,240.11917 671.08253,253.96457 C 657.64505,265.18215 627.36968,278.83328 600.07905,290.73543 C 618.21508,290.12031 606.31796,307.66057 590.51259,322.67798 C 564.95242,348.26047 515.17287,381.66242 466.90679,414.20855 C 453.9696,422.66079 447.77326,429.66378 436.04162,437.7937 C 431.15378,439.46952 427.90528,438.8682 431.68987,435.62122 C 434.62116,433.10638 434.91268,431.4633 435.68019,430.67514 C 437.20783,429.10636 445.25692,419.4103 446.36446,416.05526 C 455.17393,402.37741 455.19025,392.15606 451.98104,383.34833 C 454.8152,373.54046 457.38619,355.61621 478.10283,341.04077 C 485.81032,335.6181 512.17029,323.91372 517.53365,320.32644 C 499.45663,328.52107 471.83233,341.55051 464.88504,347.32613 C 450.37149,359.39197 446.86952,380.55849 446.73087,389.39496 C 446.59078,398.32237 436.96169,417.8773 414.22201,436.37601 C 411.47268,438.61259 380.3254,456.79953 368.65477,458.17319 C 354.77988,459.8063 337.95338,460.29028 356.23231,446.1081 C 366.59703,438.06635 389.27107,422.85038 388.47456,420.05999 C 375.20733,427.1243 354.57528,435.37266 351.39024,435.29887 C 347.61612,435.215 358.0925,427.93754 358.45652,425.29547 C 358.97964,421.49872 314.21063,444.49667 290.67599,453.36772 C 298.75185,453.1318 308.78173,454.72383 316.32239,455.01931 C 324.20556,455.32818 310.32134,468.33426 299.61945,465.87895 C 292.70432,464.29243 283.13581,460.25493 279.69439,460.62369 C 268.03621,460.80314 249.30898,460.38831 243.23079,460.68841 C 245.19434,461.6315 238.84791,464.85633 234.99108,465.589 C 231.36675,466.2775 231.38123,462.79876 232.97735,460.64278 C 230.84081,460.54852 199.67544,459.92649 182.62245,463.88217 C 165.56937,467.83785 146.67494,470.10392 153.3622,466.13472 z " />
      <path
         id="path2221"
         sodipodi:nodetypes="csccsscscccczsscssssssssccccssccscszssscsscsscczczs"
         d="M 50.520459,355.33444 C 46.846419,344.537 72.900299,336.97952 89.352379,336.61786 C 110.79034,336.14659 130.15825,338.12693 157.07354,336.1155 C 151.82687,319.60327 157.43575,297.69148 162.24106,284.37028 C 162.96246,255.62924 159.61898,229.06392 156.15909,210.04887 C 155.21048,204.83544 163.34245,205.82637 173.18319,214.00221 C 183.02392,222.17805 194.57341,237.5388 200.45984,248.94317 C 209.02178,262.17856 235.18496,308.03522 203.87747,308.02985 C 196.70457,308.02862 198.01864,302.06427 191.92267,300.13568 C 185.32163,301.67083 173.02667,317.60684 175.14236,336.4045 C 184.02799,337.25093 193.14587,335.62083 202.97308,336.23032 C 214.41404,323.07663 220.60996,312.98169 223.12916,297.90238 C 223.85993,280.60313 219.6575,268.25227 207.72573,249.26148 C 195.79396,230.27069 171.75932,205.89626 144.79926,193.38403 C 127.45518,185.33461 111.64074,170.17986 102.38653,153.80009 C 90.449939,132.67258 108.59923,99.354164 97.283329,88.835754 C 79.878519,87.117644 48.062779,89.125014 47.203979,89.291844 C 14.342579,95.675814 25.339339,105.10365 16.579749,106.73646 C 11.056369,107.76603 10.109539,95.624776 15.738599,89.318384 C 22.342409,81.919964 37.440459,75.245764 48.655339,70.621624 C 55.591989,67.761504 72.536269,61.270564 80.010409,58.338394 C 91.283319,53.915944 91.508279,49.506494 94.714119,44.838044 C 96.723079,41.912514 129.67342,27.726724 141.22029,26.074024 C 148.7767,24.992484 184.70022,16.201834 202.7284,36.976624 C 217.33489,53.808414 212.47585,74.291724 206.78569,92.150694 C 234.27086,91.227744 271.92731,117.54659 295.03212,140.07997 C 336.61009,178.46607 364.22401,228.58516 391.51735,277.4201 C 397.95113,290.10255 410.63415,300.61039 417.98051,312.80922 C 415.47983,315.32375 408.24468,314.42148 403.84624,309.54946 C 400.43957,305.77599 395.57414,303.31053 394.26072,302.12791 C 391.64645,299.77399 373.22422,285.22522 364.1224,280.19103 C 333.99724,259.66765 300.80905,244.33069 266.97066,231.11483 C 239.70711,216.3983 185.64107,189.50324 171.95688,167.63304 C 166.8658,159.49641 171.6857,141.9342 168.74793,136.55153 C 165.98873,148.84743 163.4193,168.39788 170.89317,177.06413 C 186.50678,195.16873 249.59516,226.92873 278.08423,240.1877 C 306.86652,253.58314 354.75699,282.925 377.90126,310.68201 C 380.69951,314.03796 389.1622,341.32715 374.65291,343.3883 C 357.40321,345.83875 331.62085,346.56496 315.25148,325.28483 C 305.96954,313.21833 293.38599,290.387 283.02359,286.20008 C 284.41075,296.79996 277.67237,309.1765 272.25453,309.06575 C 265.84643,308.93993 259.22958,298.02021 251.23586,294.05583 C 239.74861,288.35888 241.69988,322.8669 232.26625,336.17777 C 244.62866,335.82379 266.10774,338.21261 279.32682,338.65595 C 293.14625,339.11942 312.83835,358.63483 287.4615,354.95067 C 271.06405,352.57012 242.3883,346.5119 237.99188,347.06524 C 219.62215,347.3345 187.82912,346.71205 178.92281,347.16233 C 185.17961,348.57742 185.34145,353.41627 181.4522,354.51561 C 177.79737,355.54869 166.51657,350.3289 162.10551,347.09388 C 158.32578,346.95246 105.63858,346.01911 90.769369,351.95454 C 75.900169,357.88997 52.547029,361.2902 50.520459,355.33444 z "
         style="opacity:1;fill:#b100b1;fill-opacity:1;stroke:#000000;stroke-width:0.5;stroke-miterlimit:4;stroke-dasharray:none;stroke-opacity:1" />
    </g>
  </g>
</svg>
